<?xml version="1.0" encoding="utf-8"?>
<!DOCTYPE svg PUBLIC "-//W3C//DTD SVG 1.1//EN" "http://www.w3.org/Graphics/SVG/1.1/DTD/svg11.dtd">
<svg version="1.1" id="Layer_1" xmlns="http://www.w3.org/2000/svg" xmlns:xlink="http://www.w3.org/1999/xlink" x="0px" y="0px" width="364.36px" height="382.733px" viewBox="123.832 13.5 364.36 382.733" enable-background="new 123.832 13.5 364.36 382.733" xml:space="preserve">
<path fill="#FFFFFF" d="M320.897,195.925v200.309h34.662V228.605c60.416,26.477,132.633-16.952,132.633-86.844
	c0-55.654-48.055-99.485-103.367-94.297C339.159,2.275,265.314,2.214,219.439,47.073c-52.302-1.262-95.607,42.877-95.607,94.688
	c0,69.291,71.519,113.624,132.633,86.844v167.627h34.664V195.925l-29.596-12.19c-37.248,37.663-103.051,12.51-103.051-41.982
	c0-36.07,30.846-63.146,66.28-59.779l14.563-5.766c33.391-37.725,93.074-37.491,125.9,0.881l16.451,5.753
	c37.062-7.308,71.861,20.698,71.861,58.898c0,54.908-66.012,79.449-103.049,41.982L320.897,195.925z"/>
</svg>
